#include <Arduboy2.h>

const uint16_t town_theme[] PROGMEM = {
// Grand Piano
 NOTE_A5,136, NOTE_REST,136, NOTE_A5,136, NOTE_REST,136, NOTE_A5,136, NOTE_REST,136, NOTE_A5,136, NOTE_REST,136,
 NOTE_A5,136, NOTE_REST,136, NOTE_A5,136, NOTE_REST,136, NOTE_A5,136, NOTE_REST,136, NOTE_A5,136, NOTE_REST,136,
 NOTE_GS5,136, NOTE_REST,136, NOTE_GS5,136, NOTE_REST,136, NOTE_GS5,136, NOTE_REST,136, NOTE_GS5,136, NOTE_REST,136,
 NOTE_B5,545, NOTE_REST,409, NOTE_A5,136, NOTE_REST,136, NOTE_A5,136, NOTE_REST,136, NOTE_A5,136, NOTE_REST,136,
 NOTE_A5,136, NOTE_REST,136, NOTE_A5,136, NOTE_REST,136, NOTE_A5,136, NOTE_REST,136, NOTE_A5,136, NOTE_REST,136,
 NOTE_A5,136, NOTE_REST,136, NOTE_GS5,136, NOTE_REST,136, NOTE_GS5,136, NOTE_REST,136, NOTE_GS5,136, NOTE_REST,136,
 NOTE_GS5,136, NOTE_REST,136, NOTE_A4,272, NOTE_AS4,681, NOTE_REST,272, NOTE_AS4,136, NOTE_REST,136, NOTE_AS4,136,
 NOTE_REST,136, NOTE_AS4,136, NOTE_REST,136, NOTE_AS4,136, NOTE_REST,136, NOTE_AS4,136, NOTE_REST,136, NOTE_AS4,136,
 NOTE_REST,136, NOTE_AS4,136, NOTE_REST,136, NOTE_AS4,136, NOTE_REST,136, NOTE_A4,136, NOTE_REST,136, NOTE_A4,136,
 NOTE_REST,136, NOTE_A4,136, NOTE_REST,136, NOTE_A4,136, NOTE_REST,136, NOTE_A4,136, NOTE_REST,136, NOTE_A4,136,
 NOTE_REST,136, NOTE_A4,136, NOTE_REST,136, NOTE_A4,136, NOTE_REST,1363, NOTE_AS5,954,
 TONES_REPEAT
};

const uint16_t dungeon_theme[] PROGMEM = {
// Harpsichord
 NOTE_G5,300, NOTE_AS5,300, NOTE_CS6,300, NOTE_D6,300, NOTE_G5,300, NOTE_AS5,300, NOTE_CS6,300, NOTE_D6,300,
 NOTE_G5,300, NOTE_AS5,300, NOTE_D6,300, NOTE_E6,300, NOTE_G5,300, NOTE_AS5,300, NOTE_D6,300, NOTE_E6,300,
 NOTE_G5,300, NOTE_AS5,300, NOTE_D6,300, NOTE_DS6,300, NOTE_G5,300, NOTE_AS5,300, NOTE_D6,300, NOTE_DS6,300,
 NOTE_G5,300, NOTE_A5,300, NOTE_AS5,300, NOTE_D6,300, NOTE_G5,300, NOTE_A5,300, NOTE_AS5,300, NOTE_D6,300,
 TONES_REPEAT
};